<svg width="1440" height="750" viewBox="0 0 1440 750" fill="none" xmlns="http://www.w3.org/2000/svg">
<g clip-path="url(#clip0_2386_65327)">
<rect width="1440" height="750" fill="white"/>
<g opacity="0.1">
<line y1="737.591" x2="1440" y2="737.591" stroke="#878787"/>
<line y1="669.682" x2="1440" y2="669.682" stroke="#878787"/>
<line y1="601.773" x2="1440" y2="601.773" stroke="#878787"/>
<line y1="533.864" x2="1440" y2="533.864" stroke="#878787"/>
<line y1="465.955" x2="1440" y2="465.955" stroke="#878787"/>
<line y1="398.045" x2="1440" y2="398.045" stroke="#878787"/>
<line y1="330.136" x2="1440" y2="330.136" stroke="#878787"/>
<line y1="262.228" x2="1440" y2="262.228" stroke="#878787"/>
<line y1="194.318" x2="1440" y2="194.318" stroke="#878787"/>
<line y1="126.409" x2="1440" y2="126.409" stroke="#878787"/>
<line y1="58.5" x2="1440" y2="58.5" stroke="#878787"/>
</g>
<g opacity="0.1">
<line x1="93.5" y1="-398" x2="93.5" y2="942" stroke="#878787"/>
<line x1="207.318" y1="-398" x2="207.318" y2="942" stroke="#878787"/>
<line x1="321.136" y1="-398" x2="321.136" y2="942" stroke="#878787"/>
<line x1="434.955" y1="-398" x2="434.955" y2="942" stroke="#878787"/>
<line x1="548.773" y1="-398" x2="548.773" y2="942" stroke="#878787"/>
<line x1="662.591" y1="-398" x2="662.591" y2="942" stroke="#878787"/>
<line x1="776.409" y1="-398" x2="776.409" y2="942" stroke="#878787"/>
<line x1="890.227" y1="-398" x2="890.227" y2="942" stroke="#878787"/>
<line x1="1004.05" y1="-398" x2="1004.05" y2="942" stroke="#878787"/>
<line x1="1117.86" y1="-398" x2="1117.86" y2="942" stroke="#878787"/>
<line x1="1231.68" y1="-398" x2="1231.68" y2="942" stroke="#878787"/>
<line x1="1345.5" y1="-398" x2="1345.5" y2="942" stroke="#878787"/>
</g>
</g>
<defs>
<clipPath id="clip0_2386_65327">
<rect width="1440" height="750" fill="white"/>
</clipPath>
</defs>
</svg>
