<svg width="1440" height="1024" viewBox="0 0 1440 1024" fill="none" xmlns="http://www.w3.org/2000/svg">
<g opacity="0.1" clip-path="url(#clip0_2302_65392)">
<line y1="885.5" x2="1440" y2="885.5" stroke="#878787"/>
<line y1="817.591" x2="1440" y2="817.591" stroke="#878787"/>
<line y1="749.682" x2="1440" y2="749.682" stroke="#878787"/>
<line y1="681.773" x2="1440" y2="681.773" stroke="#878787"/>
<line y1="613.864" x2="1440" y2="613.864" stroke="#878787"/>
<line y1="545.955" x2="1440" y2="545.955" stroke="#878787"/>
<line y1="478.045" x2="1440" y2="478.045" stroke="#878787"/>
<line y1="410.136" x2="1440" y2="410.136" stroke="#878787"/>
<line y1="342.228" x2="1440" y2="342.228" stroke="#878787"/>
<line y1="274.318" x2="1440" y2="274.318" stroke="#878787"/>
<line y1="206.409" x2="1440" y2="206.409" stroke="#878787"/>
<line y1="138.5" x2="1440" y2="138.5" stroke="#878787"/>
<line x1="93.5" y1="-318" x2="93.5" y2="1022" stroke="#878787"/>
<line x1="207.318" y1="-318" x2="207.318" y2="1022" stroke="#878787"/>
<line x1="321.136" y1="-318" x2="321.136" y2="1022" stroke="#878787"/>
<line x1="434.955" y1="-318" x2="434.955" y2="1022" stroke="#878787"/>
<line x1="548.773" y1="-318" x2="548.773" y2="1022" stroke="#878787"/>
<line x1="662.591" y1="-318" x2="662.591" y2="1022" stroke="#878787"/>
<line x1="776.409" y1="-318" x2="776.409" y2="1022" stroke="#878787"/>
<line x1="890.227" y1="-318" x2="890.227" y2="1022" stroke="#878787"/>
<line x1="1004.05" y1="-318" x2="1004.05" y2="1022" stroke="#878787"/>
<line x1="1117.86" y1="-318" x2="1117.86" y2="1022" stroke="#878787"/>
<line x1="1231.68" y1="-318" x2="1231.68" y2="1022" stroke="#878787"/>
<line x1="1345.5" y1="-318" x2="1345.5" y2="1022" stroke="#878787"/>
</g>
<defs>
<clipPath id="clip0_2302_65392">
<rect width="1440" height="1024" fill="white"/>
</clipPath>
</defs>
</svg>
