<svg width="100" height="100" viewBox="0 0 100 100" fill="none" xmlns="http://www.w3.org/2000/svg">
<path d="M45.6797 4.07048C39.3183 3.89715 32.6511 12.3822 29.0586 25.4416L17.7695 29.1213C17.0355 29.3613 16.5024 29.9998 16.4024 30.7658L9.51173 84.3869C9.37773 85.4369 10.083 86.4096 11.125 86.6056L61 96.2316L65 14.3947L60.7539 15.1174C59.4279 10.2294 56.9477 7.1552 53.6797 6.4572C52.6897 6.2412 51.7327 6.2857 50.8047 6.5197C49.6907 5.3437 48.4073 4.53292 46.9453 4.21892C46.525 4.12917 46.1038 4.08203 45.6797 4.07048ZM45.4414 8.07438C45.6717 8.06901 45.8979 8.08773 46.1133 8.13298C46.4553 8.20698 46.7855 8.35866 47.1055 8.56266C43.1355 11.9567 40.1001 18.3973 38.4961 22.3713L33.6953 23.9338C36.9653 13.8838 41.9867 8.15495 45.4414 8.07438ZM53.3125 10.5353C54.8485 11.1693 56.1431 13.2336 56.9531 16.3556L54.9063 17.0236C54.5863 14.5476 54.0585 12.3553 53.3125 10.5353ZM49.5117 11.8361C50.2417 13.5341 50.773 15.7314 51.043 18.2814L43.582 20.7111C45.608 16.4111 47.6957 13.4601 49.5117 11.8361ZM66.9649 14.7931L63.2735 95.6134L88.4336 90.047C89.4576 89.821 90.1305 88.8428 89.9805 87.8088C86.7785 65.6148 80.6999 23.4026 80.5899 22.5666C80.5679 22.3666 80.5175 22.1705 80.4375 21.9845C80.0455 21.0845 79.3366 20.4394 78.3906 20.1134C78.2066 20.0514 77.987 20.016 77.793 20.008C77.349 19.99 73.4046 19.6829 71.7266 19.5509C70.3546 18.1489 67.7212 15.4658 67.0352 14.8478C67.0132 14.8258 66.9869 14.8131 66.9649 14.7931ZM45.4375 36.047C49.5655 36.047 51.7615 37.3445 51.8555 37.4025C52.2495 37.6405 52.4272 38.1227 52.2852 38.5627L49.2617 47.883C49.1697 48.167 48.9596 48.3941 48.6836 48.5041C48.4036 48.6201 48.092 48.5972 47.832 48.4572C47.806 48.4432 45.2605 47.0783 42.3125 47.0783C38.7465 47.0783 38.2149 48.9024 38.2149 49.9884C38.2149 51.1664 39.7607 52.3339 41.5547 53.6799C44.7287 56.0639 49.0742 59.3271 49.0742 65.8791C49.0742 74.0871 43.9645 79.8244 36.6485 79.8244C28.3285 79.8244 24.1389 74.642 23.9649 74.422C23.7629 74.168 23.6971 73.8278 23.7891 73.5158L25.9141 66.3713C26.0121 66.0453 26.2736 65.7895 26.6016 65.6955C26.9276 65.6075 27.2831 65.6805 27.5391 65.9025C27.5791 65.9385 31.4535 69.3244 34.5235 69.3244C36.3095 69.3244 36.7813 67.8929 36.7813 67.1369C36.7813 65.1769 35.3473 63.9828 33.5313 62.4728C31.0233 60.3888 27.9063 57.7942 27.9063 52.1642C27.9063 44.4022 33.3172 36.0509 45.1992 36.0509C45.2792 36.0509 45.3575 36.047 45.4375 36.047Z" fill="white"/>
</svg>
